# xmcd
#
# Track frame offsets: 
#        150
#        13833
#        28422
#        43606
#        59995
#        79987
#        99585
#        114568
#        129857
#        147364
#
# Disc length: 2162 seconds
#
# Revision: 1
# Processed by: cddbd v1.5.2PL0 Copyright (c) Steve Scherf et al.
# Submitted via: ExactAudioCopyFreeDBPlugin 1.0
#
DISCID=9108700a
DTITLE=Slim Butler - Big Freeze
DYEAR=2018
DGENRE=Blues
TTITLE0=Fat Times
TTITLE1=Everything You Need
TTITLE2=Keep It Real
TTITLE3=Running Away From The Blues
TTITLE4=Where Is The Love
TTITLE5=Sweaty Betty
TTITLE6=Coconut Monster
TTITLE7=Southern Belle
TTITLE8=Hey Now Baby
TTITLE9=Kissed By The Blues
EXTD=Jarmo Puhakka guitars - Harri Raudaskoski guitars - Mikko Löytty Ba
EXTD=ss - Jartsa Karvonen drums - Harri Taittonen keyboards - Andrew Blac
EXTD=k vocals (except 1 and 5)
EXTT0=Tad Robinson vocals, harmonica
EXTT1=
EXTT2=Tomi Leino harmonica
EXTT3=
EXTT4=Tad Robinson vocals
EXTT5=
EXTT6=
EXTT7=
EXTT8=
EXTT9=
PLAYORDER=
